<svg width="13" height="13" viewBox="0 0 13 13" fill="none" xmlns="http://www.w3.org/2000/svg">
<path d="M5.8428 5.52344C5.98343 5.52344 6.12405 5.38281 6.12405 5.24219V4.11719C6.12405 3.95312 5.98343 3.83594 5.8428 3.83594H3.54593C4.29593 2.80469 5.49124 2.125 6.87405 2.125C9.14749 2.125 10.9991 3.97656 10.9991 6.25C10.9991 8.54688 9.14749 10.375 6.87405 10.375C5.81937 10.375 4.85843 10 4.13187 9.34375C4.01468 9.25 3.85062 9.25 3.75687 9.36719L2.95999 10.1641C2.8428 10.2812 2.8428 10.4688 2.95999 10.5625C3.99124 11.5 5.37405 12.0625 6.87405 12.0625C10.085 12.0625 12.6866 9.48438 12.6866 6.27344C12.6866 3.0625 10.1319 0.484375 6.92093 0.460938C5.18655 0.4375 3.61624 1.1875 2.56155 2.38281V0.53125C2.56155 0.390625 2.42093 0.25 2.2803 0.25H1.1553C0.991242 0.25 0.874055 0.390625 0.874055 0.53125V5.24219C0.874055 5.38281 0.991242 5.52344 1.1553 5.52344H5.8428Z" fill="#434A56"/>
</svg>
